<svg xmlns="http://www.w3.org/2000/svg" width="360" height="720" viewBox="0 0 360 720">
  <defs>
    <style>
      .bg{fill:#F9FAFB}
      .surface{fill:#FFFFFF}
      .title{font:700 18px sans-serif;fill:#111827}
      .text{font:500 12px sans-serif;fill:#111827}
      .muted{font:400 10px sans-serif;fill:#6B7280}
      .success{fill:#10B981}
      .outline{stroke:#E5E7EB;stroke-width:1;fill:none}
    </style>
  </defs>
  <rect class="bg" x="0" y="0" width="360" height="720"/>
  <rect class="surface" x="0" y="0" width="360" height="72"/>
  <text class="title" x="16" y="44">Metas</text>
  <!-- Nova Meta -->
  <rect class="surface" x="16" y="88" width="328" height="120" rx="12"/>
  <text class="text" x="28" y="112">Título da Meta</text>
  <rect x="28" y="118" width="200" height="26" rx="6" fill="#F3F4F6"/>
  <text class="text" x="28" y="150">Valor Alvo (R$)</text>
  <rect x="28" y="156" width="130" height="26" rx="6" fill="#F3F4F6"/>
  <!-- Lista de metas -->
  <rect class="surface" x="16" y="224" width="328" height="180" rx="12"/>
  <text class="title" x="28" y="248">Minhas Metas</text>
  <g transform="translate(28,260)">
    <text class="text" x="0" y="12">Notebook</text>
    <text class="muted" x="0" y="28">R$ 2.000 / R$ 5.000</text>
    <rect x="0" y="36" width="260" height="8" rx="4" fill="#E5E7EB"/>
    <rect x="0" y="36" width="104" height="8" rx="4" class="success"/>
  </g>
  <g transform="translate(28,320)">
    <text class="text" x="0" y="12">Viagem</text>
    <text class="muted" x="0" y="28">R$ 3.000 / R$ 6.000</text>
    <rect x="0" y="36" width="260" height="8" rx="4" fill="#E5E7EB"/>
    <rect x="0" y="36" width="130" height="8" rx="4" class="success"/>
  </g>
</svg>

